<?xml version="1.0" standalone="no"?>
<!DOCTYPE svg PUBLIC "-//W3C//DTD SVG 20010904//EN"
 "http://www.w3.org/TR/2001/REC-SVG-20010904/DTD/svg10.dtd">
<svg version="1.0" xmlns="http://www.w3.org/2000/svg"
 width="1080.000000pt" height="1080.000000pt" viewBox="0 0 1080.000000 1080.000000"
 preserveAspectRatio="xMidYMid meet">

<g transform="translate(0.000000,1080.000000) scale(0.100000,-0.100000)"
fill="#000000" stroke="none">
<path d="M5280 9247 c-25 -5 -51 -14 -59 -20 -7 -6 -19 -12 -26 -13 -16 -2
-106 -66 -138 -98 -118 -118 -174 -285 -182 -537 -1 -58 -8 -131 -15 -162 -17
-75 -3 -139 53 -238 39 -68 46 -75 92 -91 33 -11 82 -17 145 -17 104 -1 152
13 84 24 -85 13 -127 37 -155 88 -16 30 -38 54 -60 65 -58 29 -72 82 -44 162
18 51 10 66 -41 76 -38 7 -44 19 -14 29 13 4 37 -2 62 -15 l41 -21 20 20 c18
17 18 22 7 37 -8 9 -38 27 -67 40 -44 19 -53 27 -53 48 0 31 11 33 28 6 11
-18 52 -29 52 -14 0 3 -12 28 -27 54 -15 27 -24 52 -21 56 12 11 57 -47 95
-124 26 -50 40 -69 47 -62 11 11 18 73 19 163 0 53 14 58 33 11 10 -23 9 -38
-3 -72 -8 -24 -12 -47 -9 -50 11 -11 59 24 84 60 13 21 33 40 43 43 23 8 34
42 19 60 -18 21 -115 55 -158 55 -21 0 -47 -7 -58 -15 -37 -28 -73 -13 -40 17
11 10 10 14 -8 23 -11 6 -27 27 -35 48 -15 40 -7 65 11 33 25 -45 81 -80 58
-35 -6 11 -10 28 -7 37 3 13 8 9 23 -15 20 -35 67 -63 106 -63 12 0 43 -10 68
-22 25 -12 47 -21 50 -20 3 0 7 -7 8 -16 1 -9 4 -35 8 -56 6 -34 3 -43 -18
-60 -13 -12 -32 -33 -41 -48 -10 -15 -34 -37 -55 -48 -20 -11 -48 -29 -61 -40
l-24 -21 21 -44 c20 -42 22 -44 53 -35 31 9 38 16 81 77 40 57 51 39 18 -27
-26 -51 -25 -68 5 -82 26 -12 35 -38 13 -38 -7 0 -26 7 -43 16 -18 9 -42 13
-61 10 -25 -5 -35 -16 -58 -64 -54 -112 -22 -152 127 -162 51 -3 97 -9 102
-12 15 -9 7 612 -8 631 -7 8 -25 20 -42 27 -40 17 -69 45 -101 99 -22 39 -30
45 -59 45 -19 0 -46 5 -62 11 -19 7 -29 7 -31 0 -6 -19 -25 -12 -20 7 3 10 -1
27 -8 37 -15 20 -19 57 -7 68 3 4 17 -9 30 -28 16 -24 36 -38 64 -45 55 -15
72 -10 84 25 11 32 18 44 51 80 12 13 20 25 19 27 -2 2 6 4 18 4 12 1 36 4 52
7 17 3 36 6 43 6 15 1 16 53 0 69 -9 9 -9 12 0 12 7 0 12 5 12 11 0 6 -9 9
-20 6 -11 -3 -20 -2 -20 1 0 10 -39 10 -90 -1z"/>
<path d="M6825 8741 c-6 -35 -18 -50 -84 -108 -160 -140 -195 -244 -126 -373
20 -36 40 -78 46 -93 13 -33 29 -20 29 24 0 34 38 141 90 259 52 115 70 178
70 250 0 72 -15 97 -25 41z"/>
<path d="M4592 8715 c0 -16 2 -22 5 -12 2 9 2 23 0 30 -3 6 -5 -1 -5 -18z"/>
<path d="M3931 8574 c-75 -20 -84 -29 -75 -78 16 -101 63 -156 130 -156 53 0
56 -14 9 -37 -64 -30 -34 -73 52 -73 44 0 89 21 141 66 44 37 68 38 122 6 l25
-15 -26 27 c-17 18 -38 28 -66 31 -22 2 -98 30 -169 61 -135 59 -140 62 -133
68 9 8 115 -26 212 -68 73 -32 104 -41 109 -33 13 20 9 75 -8 115 -14 34 -17
35 -28 20 -17 -24 -36 -23 -36 1 0 11 -11 33 -25 48 -21 23 -26 26 -34 13 -9
-13 -14 -13 -40 3 -35 20 -87 21 -160 1z"/>
<path d="M5043 8455 c-27 -19 -57 -97 -49 -128 3 -13 17 -29 31 -37 23 -12 27
-11 49 9 43 40 51 139 14 162 -18 12 -20 11 -45 -6z"/>
<path d="M4591 8444 c0 -11 3 -14 6 -6 3 7 2 16 -1 19 -3 4 -6 -2 -5 -13z"/>
<path d="M7040 8114 c-62 -17 -131 -76 -157 -134 -21 -47 -20 -138 2 -181 53
-102 117 -142 235 -143 65 -1 81 3 123 27 86 51 126 115 127 203 0 69 -16 112
-58 156 -69 72 -172 100 -272 72z m180 -89 c0 -8 -4 -15 -10 -15 -5 0 -10 7
-10 15 0 8 5 15 10 15 6 0 10 -7 10 -15z m31 -38 c-13 -13 -26 -3 -16 12 3 6
11 8 17 5 6 -4 6 -10 -1 -17z m-166 3 c3 -5 -1 -10 -9 -10 -9 0 -16 5 -16 10
0 6 4 10 9 10 6 0 13 -4 16 -10z m95 0 c0 -5 -9 -10 -21 -10 -11 0 -17 5 -14
10 3 6 13 10 21 10 8 0 14 -4 14 -10z m-50 -36 c0 -17 -22 -14 -28 4 -2 7 3
12 12 12 9 0 16 -7 16 -16z m88 -6 c14 -14 16 -28 2 -28 -5 0 -14 9 -20 20
-12 22 -1 27 18 8z m-110 -29 c-2 -6 -8 -10 -13 -10 -5 0 -11 4 -13 10 -2 6 4
11 13 11 9 0 15 -5 13 -11z m62 1 c0 -5 -7 -10 -15 -10 -8 0 -15 5 -15 10 0 6
7 10 15 10 8 0 15 -4 15 -10z"/>
<path d="M5117 7993 c15 -6 39 -9 53 -6 47 11 39 18 -21 18 -56 0 -58 -1 -32
-12z"/>
<path d="M5529 7997 c5 -5 28 -7 52 -5 l44 3 -52 5 c-29 3 -48 1 -44 -3z"/>
<path d="M5408 7838 c-19 -19 -13 -24 11 -9 7 5 12 13 10 18 -2 5 -12 1 -21
-9z"/>
<path d="M5312 7834 c10 -10 20 -16 22 -13 3 3 -5 11 -17 18 -21 13 -21 12 -5
-5z"/>
<path d="M7527 7768 c-74 -40 -171 -144 -207 -221 -42 -87 -56 -183 -40 -271
19 -103 20 -136 6 -136 -9 0 -11 -15 -9 -52 5 -55 22 -108 35 -108 5 0 8 -6 8
-12 1 -21 89 -110 102 -102 6 4 8 3 5 -3 -4 -6 18 -30 48 -53 50 -38 115 -128
115 -158 0 -28 43 -122 55 -122 20 0 63 78 86 157 27 94 49 258 49 378 0 290
-117 741 -192 735 -2 0 -29 -15 -61 -32z m-133 -611 c14 -10 16 -16 7 -22 -7
-4 -22 2 -37 16 -45 42 -24 46 30 6z m-43 -204 c13 -16 12 -17 -3 -4 -10 7
-18 15 -18 17 0 8 8 3 21 -13z"/>
<path d="M5411 7683 c-35 -12 -51 -13 -81 -4 -20 6 -48 11 -61 11 l-24 -1 22
-18 c12 -10 20 -21 17 -24 -3 -2 2 -7 11 -11 9 -3 13 -2 10 4 -3 6 0 10 9 10
8 0 16 -4 18 -9 5 -13 130 8 148 25 13 13 13 16 0 24 -18 12 -15 12 -69 -7z"/>
<path d="M3446 7602 c-3 -5 1 -9 9 -9 8 0 12 4 9 9 -3 4 -7 8 -9 8 -2 0 -6 -4
-9 -8z"/>
<path d="M3280 7595 c0 -3 16 -37 35 -75 45 -89 61 -138 74 -227 15 -97 7
-128 -52 -193 -48 -54 -86 -120 -87 -150 0 -8 16 12 34 45 19 33 57 85 85 115
l51 55 -6 83 c-4 55 -3 82 4 82 7 0 8 9 2 28 -4 15 -16 51 -25 81 -20 65 -115
194 -115 156z"/>
<path d="M3456 7567 c3 -10 9 -15 12 -12 3 3 0 11 -7 18 -10 9 -11 8 -5 -6z"/>
<path d="M5186 7501 c-8 -12 68 -86 104 -101 32 -13 64 -7 58 12 -2 6 -22 18
-44 25 -21 8 -56 27 -76 43 -20 17 -39 26 -42 21z"/>
<path d="M5535 7485 c-16 -13 -50 -31 -75 -40 l-45 -15 -3 -120 c-1 -70 1
-120 7 -120 35 0 41 13 41 89 0 74 1 77 34 108 19 17 37 29 40 25 3 -3 6 3 6
14 1 17 2 18 13 3 11 -14 13 -10 15 32 1 27 0 49 -1 49 -1 0 -15 -11 -32 -25z"/>
<path d="M3483 7236 c-15 -18 -21 -45 -8 -43 5 1 10 7 11 12 1 6 5 18 9 28 8
20 4 21 -12 3z"/>
<path d="M5420 7136 c-6 -6 -10 -220 -10 -594 l0 -584 32 -30 c32 -30 33 -30
128 -26 83 3 101 8 144 33 62 36 154 121 192 177 16 24 32 44 36 46 4 2 4 10
1 19 -4 10 -2 14 4 10 6 -4 21 22 36 61 40 107 46 128 36 143 -5 8 -8 21 -8
29 0 10 3 8 9 -5 5 -13 8 13 7 70 0 50 -4 92 -7 95 -4 3 -10 19 -13 37 -5 26
-4 31 9 26 14 -5 14 -3 3 16 -8 11 -17 21 -21 21 -3 0 -11 22 -17 48 -5 26
-15 61 -21 77 -9 24 -13 27 -21 15 -7 -11 -9 -5 -4 20 6 35 6 35 -9 10 l-15
-25 3 25 c1 14 6 32 11 39 6 10 4 12 -5 6 -9 -6 -12 -4 -8 6 6 16 -38 20 -62
4 -12 -7 -13 -6 -3 6 13 16 12 64 -2 77 -4 4 -5 1 -1 -5 13 -23 -20 -14 -48
12 -14 13 -30 24 -33 24 -4 0 -9 5 -12 12 -2 8 1 9 10 3 12 -6 12 -5 0 10 -10
12 -23 15 -45 11 -27 -4 -28 -4 -8 5 23 10 22 30 -1 30 -7 0 -29 9 -48 19 -66
35 -214 52 -239 27z m175 -56 c-3 -5 -3 -15 1 -21 10 -17 15 -101 4 -94 -5 3
-5 -8 0 -27 6 -17 7 -50 5 -72 l-6 -41 20 45 c11 25 20 54 20 64 1 26 29 56
53 56 15 0 17 -7 15 -39 -2 -23 1 -37 6 -34 5 3 6 -4 2 -17 -4 -12 -3 -20 1
-17 5 3 8 -15 7 -39 -1 -24 1 -44 5 -45 4 0 15 -2 24 -4 10 -2 21 2 25 7 4 7
1 8 -7 3 -9 -5 -11 -4 -6 3 4 7 15 12 24 12 15 1 15 2 -2 15 -23 17 -14 20 15
5 24 -14 26 5 2 19 -10 6 -13 11 -6 11 6 0 18 -7 27 -15 17 -17 36 -20 36 -4
0 5 5 7 10 4 6 -3 10 -11 10 -16 0 -6 -4 -8 -9 -5 -5 3 -11 -3 -14 -13 -3 -14
-1 -18 9 -14 29 11 13 -5 -21 -21 -20 -10 -33 -22 -29 -27 3 -6 0 -9 -7 -8 -8
1 -22 -1 -32 -6 -15 -6 -16 -10 -5 -16 7 -5 18 -9 23 -9 6 0 4 4 -4 9 -10 7
-7 9 12 8 15 -1 27 -3 27 -4 0 -4 -59 -33 -67 -33 -4 0 -1 5 7 11 11 8 6 9
-22 4 -25 -4 -38 -2 -41 7 -4 9 -6 7 -6 -4 -1 -9 5 -19 12 -21 6 -3 2 -6 -10
-6 -26 -1 -38 -17 -22 -27 8 -4 9 -3 5 4 -8 14 -5 15 19 6 12 -5 14 -9 4 -14
-19 -13 93 -4 121 9 23 10 23 11 2 7 -12 -2 -20 0 -16 5 3 5 -3 9 -12 9 -10 0
-15 2 -12 5 3 3 27 1 54 -5 78 -17 79 -18 60 -39 -15 -16 -15 -19 -1 -31 8 -7
15 -17 15 -22 0 -5 -7 -2 -16 6 -19 19 -26 20 -42 4 -17 -17 -15 -38 4 -38 10
0 14 6 11 14 -10 25 4 25 29 -1 27 -27 33 -43 8 -22 -13 10 -21 10 -47 -3 -52
-26 -79 -29 -93 -10 -12 16 -13 15 -14 -4 0 -12 -7 -25 -16 -28 -13 -5 -15 -1
-10 19 7 27 -3 32 -22 13 -7 -7 -12 -8 -12 -2 0 6 10 16 23 23 13 7 15 9 4 6
-10 -3 -28 -5 -38 -5 -11 0 -17 -4 -14 -10 3 -5 0 -7 -9 -4 -9 3 -12 13 -9 22
5 14 3 15 -7 5 -11 -10 -11 -15 0 -28 11 -14 10 -17 -9 -22 -17 -4 -19 -8 -9
-14 7 -4 22 -6 33 -3 21 5 54 -20 54 -41 0 -5 5 -11 13 -13 9 -2 8 0 -2 8 -12
10 -11 11 8 7 12 -3 22 -1 22 3 0 5 14 4 30 -2 17 -5 42 -7 55 -4 16 4 25 2
25 -5 0 -7 10 -9 28 -4 25 6 26 5 8 -8 -13 -10 -15 -16 -8 -21 30 -18 8 -26
-55 -20 -62 6 -66 5 -53 -11 9 -11 22 -14 39 -11 14 3 20 3 13 0 -10 -5 -5
-14 17 -33 38 -33 45 -65 14 -69 -13 -2 -23 1 -23 7 0 6 -7 11 -17 11 -9 0
-13 3 -10 7 4 3 -1 12 -11 19 -21 16 -36 18 -27 3 4 -6 -2 -5 -14 3 -12 7 -21
17 -21 22 0 4 8 3 18 -5 11 -8 10 -5 -3 9 -31 34 -64 36 -71 6 -7 -29 1 -55
17 -52 8 2 12 -14 13 -44 0 -25 4 -44 8 -42 4 3 16 0 25 -5 10 -6 14 -11 10
-11 -14 0 20 -30 35 -30 10 0 10 -2 1 -8 -6 -4 -16 -30 -21 -57 l-10 -50 -1
48 c-1 46 -2 47 -32 47 -17 0 -28 -4 -24 -10 3 -5 13 -10 21 -10 8 0 14 -6 14
-13 0 -20 -44 -14 -48 6 -4 19 -44 32 -68 23 -16 -6 -16 -17 -2 -75 2 -8 -3
-16 -10 -18 -12 -5 -42 52 -42 81 0 41 61 58 126 34 17 -6 40 -8 50 -3 16 6
15 9 -11 16 -16 4 -44 25 -61 45 -25 30 -38 37 -70 38 l-39 1 3 -51 c3 -44 -1
-57 -29 -98 -21 -32 -34 -44 -39 -36 -9 15 -1 50 12 50 5 0 6 5 3 10 -3 6 -1
10 4 10 6 0 11 20 11 44 0 39 -2 44 -20 39 -11 -3 -20 -10 -20 -15 0 -5 4 -6
10 -3 6 3 7 -1 3 -10 -4 -13 -8 -14 -14 -4 -6 10 -11 10 -22 1 -21 -17 -28 -3
-11 22 8 13 11 26 7 30 -4 4 1 4 11 0 17 -6 18 -4 13 22 -22 97 -20 117 12
158 17 21 31 45 31 53 0 23 -32 64 -46 59 -8 -3 -13 -2 -12 2 2 4 -6 19 -15
34 -12 17 -18 47 -19 89 -1 55 2 65 23 81 13 11 32 26 42 33 19 17 24 89 6
101 -26 15 -65 144 -45 144 2 0 12 3 21 7 14 5 16 2 12 -13 -3 -10 2 -35 13
-54 l18 -35 11 28 c6 16 11 40 11 54 0 14 8 32 18 39 21 16 25 17 17 4z m92 4
c-3 -3 -12 -4 -19 -1 -8 3 -5 6 6 6 11 1 17 -2 13 -5z m94 -101 c12 -16 12
-17 -2 -6 -9 7 -20 9 -24 5 -5 -4 -5 -1 -1 6 9 16 11 15 27 -5z m-26 -72 c0
-16 -3 -27 -7 -24 -13 7 -7 53 6 53 1 0 1 -13 1 -29z m120 -21 c-3 -5 -12 -10
-18 -10 -7 0 -6 4 3 10 19 12 23 12 15 0z m22 -22 c2 -17 0 -19 -7 -8 -5 8 -6
18 -4 22 8 12 10 10 11 -14z m-17 -132 c0 -8 -31 -36 -41 -36 -5 0 -9 5 -9 11
0 5 5 7 10 4 6 -3 13 1 16 9 5 14 24 23 24 12z m33 -43 c-7 -2 -21 -2 -30 0
-10 3 -4 5 12 5 17 0 24 -2 18 -5z m7 -53 c0 -5 -5 -10 -11 -10 -5 0 -7 5 -4
10 3 6 8 10 11 10 2 0 4 -4 4 -10z m-80 -120 c0 -5 -7 -7 -15 -4 -8 4 -15 8
-15 10 0 2 7 4 15 4 8 0 15 -4 15 -10z m-386 -340 c-6 -6 -10 -3 -10 10 0 13
4 16 10 10 7 -7 7 -13 0 -20z m246 -154 c0 -9 -7 -16 -15 -16 -8 0 -15 7 -15
15 0 7 -7 18 -16 23 -11 6 -14 16 -9 31 6 20 7 20 31 -8 13 -16 24 -36 24 -45z"/>
<path d="M5651 6884 c0 -11 3 -14 6 -6 3 7 2 16 -1 19 -3 4 -6 -2 -5 -13z"/>
<path d="M5631 6844 c0 -11 3 -14 6 -6 3 7 2 16 -1 19 -3 4 -6 -2 -5 -13z"/>
<path d="M5570 6725 c-7 -9 -8 -15 -2 -15 5 0 12 7 16 15 3 8 4 15 2 15 -2 0
-9 -7 -16 -15z"/>
<path d="M5596 6445 c-9 -14 -14 -30 -11 -35 3 -5 0 -12 -6 -16 -8 -5 -9 -3
-4 6 5 9 4 11 -4 6 -7 -5 -9 -16 -5 -28 5 -15 3 -19 -7 -13 -10 6 -11 5 -4 -3
6 -6 28 -14 50 -18 36 -5 38 -5 25 12 -14 16 -13 17 3 11 10 -4 16 -3 12 2 -3
5 -1 12 3 15 16 10 6 59 -15 73 -18 12 -22 11 -37 -12z"/>
<path d="M5195 7010 c9 -25 10 -42 4 -46 -5 -3 -7 -15 -3 -26 4 -14 2 -18 -5
-14 -15 10 -14 -1 5 -29 9 -14 21 -22 27 -18 6 3 7 1 3 -5 -4 -7 -4 -17 0 -23
5 -8 9 -8 14 1 5 9 9 9 14 1 4 -6 2 -11 -3 -11 -6 0 -11 -4 -11 -10 0 -15 17
-12 24 5 3 8 -2 21 -10 30 -17 17 -5 21 14 5 6 -6 10 -7 7 -4 -3 4 0 13 6 20
6 8 9 20 6 29 -4 8 -2 17 3 20 6 4 10 -3 10 -14 0 -12 5 -21 10 -21 13 0 3
-45 -18 -80 -11 -20 -11 -21 0 -8 12 14 14 8 14 -48 0 -37 6 -70 13 -77 9 -9
10 0 5 45 -8 68 3 145 17 113 6 -13 6 -6 2 20 -3 22 -10 42 -14 43 -5 2 -9 12
-9 23 0 12 -7 19 -19 19 -16 0 -19 6 -16 31 l4 30 -18 -22 c-16 -20 -49 -20
-36 1 3 4 -5 10 -18 14 -17 5 -19 8 -8 15 11 7 10 11 -7 20 -21 11 -21 11 -7
-29z m53 -61 c-2 -6 -8 -10 -13 -10 -5 0 -11 4 -13 10 -2 6 4 11 13 11 9 0 15
-5 13 -11z"/>
<path d="M5235 7020 c3 -5 14 -10 23 -10 15 0 15 2 2 10 -20 13 -33 13 -25 0z"/>
<path d="M5790 7026 c0 -2 8 -10 18 -17 15 -13 16 -12 3 4 -13 16 -21 21 -21
13z"/>
<path d="M5300 6980 c0 -5 5 -10 10 -10 6 0 10 5 10 10 0 6 -4 10 -10 10 -5 0
-10 -4 -10 -10z"/>
<path d="M5337 6963 c-4 -3 -7 -11 -7 -17 0 -6 5 -5 12 2 6 6 9 14 7 17 -3 3
-9 2 -12 -2z"/>
<path d="M5170 6887 c0 -9 5 -19 10 -22 6 -3 10 -11 10 -16 0 -6 -6 -7 -12 -3
-9 5 -8 2 1 -9 8 -10 19 -16 25 -14 6 2 17 -3 24 -12 8 -9 6 -2 -3 17 -8 17
-20 32 -26 32 -6 0 -8 4 -5 9 3 5 -1 14 -9 21 -12 10 -15 10 -15 -3z m40 -47
c0 -5 -5 -10 -11 -10 -5 0 -7 5 -4 10 3 6 8 10 11 10 2 0 4 -4 4 -10z"/>
<path d="M5970 6810 c0 -5 5 -10 11 -10 5 0 7 5 4 10 -3 6 -8 10 -11 10 -2 0
-4 -4 -4 -10z"/>
<path d="M5255 6780 c-3 -6 1 -7 9 -4 18 7 21 14 7 14 -6 0 -13 -4 -16 -10z"/>
<path d="M4615 6752 c-98 -57 -124 -93 -190 -267 -40 -105 -53 -140 -105 -270
-18 -44 -38 -99 -45 -122 l-13 -43 42 0 c28 0 48 6 58 18 8 9 69 154 136 322
66 168 128 322 137 343 8 20 14 37 13 37 -2 0 -16 -8 -33 -18z"/>
<path d="M6062 6759 c3 -7 23 -75 44 -149 21 -74 74 -229 119 -345 l81 -210
46 -3 46 -3 -8 33 c-15 56 -47 150 -78 223 -90 216 -130 316 -129 325 1 3 -13
26 -31 52 -32 47 -101 106 -90 77z"/>
<path d="M5276 6741 c-4 -7 -3 -24 2 -39 6 -15 13 -40 17 -56 6 -27 7 -28 23
-12 16 16 16 18 0 30 -10 7 -18 22 -19 32 -1 33 -15 59 -23 45z"/>
<path d="M5342 6665 c0 -16 2 -22 5 -12 2 9 2 23 0 30 -3 6 -5 -1 -5 -18z"/>
<path d="M3394 6657 c56 -36 106 -91 93 -103 -2 -3 -20 4 -38 15 -29 17 -41
18 -77 10 -136 -30 -182 -170 -107 -323 41 -83 58 -105 110 -140 44 -30 69
-32 125 -10 37 15 43 15 80 0 52 -21 85 -13 133 33 63 59 107 165 107 259 0
97 -90 187 -180 179 -25 -2 -53 -7 -62 -11 -17 -8 -17 -6 -2 29 8 20 12 40 9
44 -10 9 -45 -38 -45 -60 0 -37 -20 -30 -21 8 0 21 -5 47 -10 58 -6 14 -7 4
-3 -30 l6 -50 -32 38 c-17 20 -45 44 -60 52 -34 18 -53 19 -26 2z m296 -152
c20 -24 5 -45 -26 -36 -28 7 -94 0 -126 -14 -34 -14 -18 10 25 37 47 31 107
37 127 13z"/>
<path d="M5326 6599 c-3 -18 -4 -34 -2 -36 2 -3 7 10 11 27 4 17 5 34 2 36 -2
3 -7 -10 -11 -27z"/>
<path d="M6031 6604 c0 -11 3 -14 6 -6 3 7 2 16 -1 19 -3 4 -6 -2 -5 -13z"/>
<path d="M5277 6590 c-3 -11 -1 -20 4 -20 5 0 9 9 9 20 0 11 -2 20 -4 20 -2 0
-6 -9 -9 -20z"/>
<path d="M6043 6525 c0 -33 2 -45 4 -27 2 18 2 45 0 60 -2 15 -4 0 -4 -33z"/>
<path d="M5253 6480 c3 -16 21 -14 25 2 3 10 2 10 -6 -1 -7 -9 -11 -10 -15 -2
-4 7 -5 8 -4 1z"/>
<path d="M5132 6434 c-19 -29 -21 -38 -10 -45 17 -11 29 -11 47 0 10 7 10 10
1 16 -7 4 -16 2 -21 -6 -5 -9 -7 -4 -6 16 3 34 32 43 32 10 1 -11 6 -19 13
-17 7 1 12 -2 12 -6 0 -15 -51 -33 -72 -26 -15 4 -19 2 -16 -11 5 -26 60 -29
89 -6 l23 18 -28 47 c-15 25 -30 46 -34 46 -4 0 -18 -17 -30 -36z m78 -54 c0
-5 -5 -10 -11 -10 -5 0 -7 5 -4 10 3 6 8 10 11 10 2 0 4 -4 4 -10z"/>
<path d="M5288 6422 c11 -15 17 -32 15 -39 -2 -7 1 -20 7 -30 10 -15 10 -14 5
10 -4 22 -1 29 17 37 13 5 17 9 11 9 -7 1 -13 8 -13 16 0 8 -4 15 -9 15 -5 0
-7 -10 -3 -22 3 -14 2 -19 -6 -14 -7 4 -12 13 -12 21 0 7 -7 16 -16 19 -12 5
-11 0 4 -22z"/>
<path d="M5150 6430 c0 -5 5 -10 10 -10 6 0 10 5 10 10 0 6 -4 10 -10 10 -5 0
-10 -4 -10 -10z"/>
<path d="M5290 6341 c0 -6 4 -13 10 -16 6 -3 7 1 4 9 -7 18 -14 21 -14 7z"/>
<path d="M5320 6309 c0 -6 -9 -8 -20 -4 -21 7 -65 -17 -53 -29 4 -4 -1 -4 -11
0 -13 5 -17 4 -12 -4 4 -7 2 -10 -7 -7 -38 15 -73 -92 -42 -130 9 -11 13 -14
9 -6 -5 10 -3 12 5 7 7 -5 10 -11 7 -14 -3 -3 1 -14 11 -24 9 -10 13 -18 8
-18 -4 0 0 -11 8 -24 9 -13 13 -33 10 -46 -3 -13 -1 -25 7 -30 15 -10 52 -1
44 11 -3 5 1 7 8 4 7 -3 25 6 39 19 23 21 26 33 28 97 2 77 -18 209 -31 209
-4 0 -8 -5 -8 -11z m-54 -317 c-10 -10 -29 15 -21 28 6 9 10 8 17 -4 6 -10 7
-20 4 -24z"/>
<path d="M5071 6271 c-5 -9 -9 -20 -10 -26 0 -5 -8 -18 -16 -27 -13 -16 -13
-18 4 -18 11 0 22 8 25 18 4 13 4 13 3 -3 -2 -16 -10 -20 -41 -21 -32 -1 -45
-8 -77 -44 -41 -46 -49 -63 -24 -54 9 4 15 0 15 -9 0 -8 -5 -17 -12 -19 -14
-5 19 -65 40 -73 20 -8 30 4 12 15 -12 8 -12 10 3 16 9 3 24 1 32 -6 13 -11
15 -8 15 18 0 17 -3 32 -7 35 -5 2 -3 2 4 1 6 -2 14 4 17 12 9 22 7 26 -5 18
-7 -4 -1 7 12 25 28 38 38 41 14 4 l-17 -28 27 26 c26 26 52 109 34 109 -5 0
-9 -6 -9 -12 0 -10 -3 -9 -9 1 -10 15 -3 51 10 51 4 0 11 -5 15 -12 4 -7 3 -8
-4 -4 -7 4 -12 2 -12 -3 0 -6 7 -11 16 -11 9 0 14 7 12 18 -4 22 -56 25 -67 3z
m-48 -111 c-21 -24 -43 -26 -43 -4 0 10 5 14 16 10 8 -3 12 -2 9 4 -3 6 3 10
14 10 20 0 20 -1 4 -20z m-43 -90 c0 -5 -4 -10 -10 -10 -5 0 -10 5 -10 10 0 6
5 10 10 10 6 0 10 -4 10 -10z"/>
<path d="M5098 6080 c-31 -42 -32 -102 -3 -130 20 -18 23 -19 35 -5 7 8 10 19
6 22 -4 4 -12 1 -17 -7 -9 -13 -10 -12 -5 2 3 10 1 20 -4 23 -6 4 -10 -2 -10
-11 0 -10 -3 -14 -7 -11 -3 4 0 19 7 33 13 23 15 24 21 7 6 -13 8 -10 8 14 1
33 16 53 24 31 2 -7 2 -2 0 10 -3 17 0 22 9 16 7 -4 4 2 -6 14 -25 29 -31 28
-58 -8z m46 -1 c-3 -6 -13 -8 -21 -5 -12 5 -14 1 -9 -20 5 -17 3 -23 -4 -19
-5 3 -10 -1 -10 -9 0 -8 -4 -17 -9 -20 -17 -11 8 68 25 81 18 13 38 8 28 -8z"/>
<path d="M5175 6050 c3 -5 8 -10 11 -10 2 0 4 5 4 10 0 6 -5 10 -11 10 -5 0
-7 -4 -4 -10z"/>
<path d="M5170 6023 c0 -6 8 -17 18 -24 16 -13 16 -13 2 6 -8 11 -16 22 -17
24 -2 2 -3 0 -3 -6z"/>
<path d="M5170 5960 c-14 -11 -20 -20 -15 -19 13 0 50 28 44 33 -2 3 -15 -4
-29 -14z"/>
<path d="M5428 5844 c-13 -13 -9 -199 4 -212 17 -17 47 -14 84 6 41 22 127
118 119 132 -3 5 -2 10 3 10 28 0 28 -67 1 -96 -12 -12 -18 -27 -14 -33 8 -14
68 -14 100 1 31 14 40 6 26 -21 -16 -29 -85 -46 -136 -33 -34 9 -45 7 -85 -13
-25 -13 -38 -24 -29 -25 30 0 67 -60 38 -60 -5 0 -28 14 -50 32 -38 31 -40 31
-54 12 -19 -25 -21 -220 -2 -226 20 -8 73 19 97 49 11 15 26 47 33 70 10 38
15 43 39 43 21 0 43 15 86 60 43 44 66 60 85 60 38 0 34 -23 -7 -45 -55 -30
-61 -49 -32 -100 15 -24 26 -46 26 -49 0 -15 -52 -4 -67 14 -34 39 -62 23 -88
-50 -14 -41 -14 -45 5 -65 24 -25 26 -54 6 -81 -14 -18 -15 -18 -26 11 -21 56
-27 58 -89 24 -31 -18 -62 -39 -69 -48 -9 -11 -12 -63 -10 -206 l3 -190 40 3
c134 11 254 61 336 142 101 100 145 236 135 415 -11 213 -98 370 -242 441 -47
23 -73 28 -158 32 -55 2 -104 1 -108 -4z m87 -124 c0 -46 -19 -65 -30 -30 -9
28 4 82 18 77 7 -2 12 -23 12 -47z m-31 -275 c20 -30 21 -55 1 -55 -17 0 -35
30 -35 59 0 28 14 26 34 -4z"/>
<path d="M4140 5818 c-19 -5 -39 -13 -45 -18 -5 -4 -19 -4 -30 1 -33 13 -94
10 -126 -7 -42 -21 -89 -98 -89 -145 0 -86 42 -153 135 -212 43 -28 58 -32
115 -31 75 1 113 17 158 69 42 47 61 85 72 146 18 96 -19 162 -109 194 -24 8
-44 15 -45 14 0 0 -17 -5 -36 -11z"/>
<path d="M2062 3753 c-16 -21 -41 -57 -57 -80 -20 -31 -48 -54 -104 -84 -206
-113 -343 -247 -395 -385 -11 -27 -25 -58 -33 -69 -26 -38 -16 -118 26 -207
21 -46 50 -98 65 -117 14 -19 26 -45 26 -56 0 -23 41 -75 60 -75 5 0 10 8 11
18 2 68 24 139 117 374 7 18 21 30 39 34 15 3 45 10 65 15 73 19 260 49 359
60 118 12 262 -1 319 -29 41 -20 77 -70 86 -121 10 -49 -18 -150 -61 -225 -19
-34 -47 -81 -61 -106 -14 -25 -33 -53 -42 -62 -17 -20 -3 -24 18 -5 7 6 -4 -9
-26 -34 -110 -129 -298 -271 -455 -344 -57 -26 -98 -35 -69 -14 12 9 12 10 -3
5 -11 -3 -30 -9 -43 -12 -13 -3 -22 -10 -19 -14 10 -16 -30 -19 -110 -11 -94
9 -142 31 -151 67 -11 44 5 135 34 187 33 61 140 178 217 237 42 32 53 46 43
53 -9 6 -8 7 5 3 10 -3 38 8 70 28 125 80 308 161 445 196 43 11 54 26 26 37
-30 11 -214 -49 -213 -70 0 -5 -35 -26 -78 -47 -43 -21 -102 -53 -130 -70 -29
-18 -53 -30 -53 -27 0 6 121 78 195 116 33 16 56 30 52 31 -17 1 -212 -103
-286 -152 -88 -59 -122 -88 -116 -98 3 -4 -3 -14 -13 -21 -15 -13 -16 -12 -3
4 9 12 10 17 2 17 -7 0 -31 -21 -55 -47 -24 -27 -73 -80 -110 -120 -36 -40
-66 -78 -66 -85 0 -7 -3 -42 -6 -78 -7 -92 20 -144 95 -182 125 -63 298 -20
527 130 313 206 523 510 484 699 -44 212 -288 274 -722 184 -49 -10 -88 -15
-88 -12 1 3 28 26 60 50 93 70 280 244 311 291 31 46 37 95 16 124 -14 20 -83
38 -111 30 -18 -6 -18 -4 3 24 27 38 26 47 -1 66 -36 26 -64 19 -96 -21z m172
-99 c17 -7 13 -45 -9 -77 -21 -30 -90 -100 -135 -137 -49 -39 -112 -93 -150
-128 -28 -26 -60 -46 -60 -37 0 18 133 242 186 313 19 26 45 53 57 59 23 13
85 17 111 7z m-302 -106 c-50 -83 -114 -201 -158 -290 -43 -86 -53 -99 -86
-113 -42 -16 -51 -47 -20 -66 17 -10 15 -18 -23 -129 -22 -65 -43 -121 -47
-125 -8 -9 -72 117 -87 170 -32 122 85 346 241 462 65 48 180 121 191 122 5 1
0 -14 -11 -31z m33 -38 c-3 -5 -2 -10 4 -10 6 0 8 -6 5 -14 -3 -8 -11 -13 -19
-10 -7 3 -23 -13 -39 -40 -30 -51 -33 -64 -11 -46 9 7 -3 -24 -26 -70 -24 -50
-44 -78 -48 -71 -5 8 -11 3 -19 -13 -6 -14 -21 -30 -34 -37 -22 -11 -22 -11
-8 6 8 10 31 48 50 85 86 164 127 230 142 230 5 0 6 -4 3 -10z m175 -64 c0 -2
-17 -16 -37 -31 l-38 -28 29 31 c26 28 46 40 46 28z m225 -236 c-28 -12 -65
-12 -65 0 0 6 19 10 43 9 32 0 37 -2 22 -9z m-143 -12 c-9 -9 -15 -9 -24 0 -9
9 -7 12 12 12 19 0 21 -3 12 -12z m58 2 c-20 -13 -40 -13 -40 0 0 6 12 10 28
10 21 0 24 -2 12 -10z m-117 -17 c-7 -2 -21 -2 -30 0 -10 3 -4 5 12 5 17 0 24
-2 18 -5z m-76 -9 c-3 -3 -12 -4 -19 -1 -8 3 -5 6 6 6 11 1 17 -2 13 -5z
m-350 -106 c-6 -23 -6 -23 10 -3 15 19 15 19 8 -5 -4 -14 -24 -66 -45 -116
-22 -50 -42 -103 -46 -118 -3 -14 -10 -23 -15 -20 -5 3 -9 0 -9 -5 0 -6 -5
-11 -11 -11 -6 0 -8 8 -6 18 23 81 43 140 54 157 7 11 13 29 13 42 0 12 5 25
10 28 6 3 10 15 10 25 0 15 9 25 29 29 2 1 1 -9 -2 -21z m683 -561 c0 -2 -24
-23 -52 -46 l-53 -43 50 46 c48 44 55 50 55 43z m-150 -120 c0 -2 -10 -12 -22
-23 l-23 -19 19 23 c18 21 26 27 26 19z m-95 -73 c-28 -21 -55 -36 -55 -29 0
6 62 45 70 45 3 -1 -4 -8 -15 -16z m-245 -88 c0 -2 -7 -7 -16 -10 -8 -3 -12
-2 -9 4 6 10 25 14 25 6z"/>
<path d="M1870 3355 c-7 -9 -10 -18 -7 -21 3 -3 10 4 17 15 13 25 8 27 -10 6z"/>
<path d="M1843 3303 c-3 -10 -8 -22 -10 -28 -3 -5 3 -1 11 9 16 20 21 36 11
36 -3 0 -8 -8 -12 -17z"/>
<path d="M1701 2986 c-12 -32 -20 -64 -17 -70 2 -6 5 -5 5 3 1 8 10 34 22 58
11 23 19 49 17 55 -3 7 -15 -13 -27 -46z"/>
<path d="M6902 3753 c-16 -21 -41 -57 -57 -80 -20 -31 -48 -54 -104 -84 -106
-58 -176 -108 -248 -176 -55 -53 -143 -172 -143 -196 0 -5 -11 -31 -25 -59
-36 -71 -33 -128 9 -221 18 -40 47 -93 65 -117 17 -23 31 -52 31 -62 0 -24 39
-78 57 -78 7 0 13 8 14 18 2 68 24 140 117 374 6 14 19 29 29 32 52 16 331 66
420 76 121 13 270 1 329 -27 44 -21 81 -69 90 -122 10 -52 -18 -151 -67 -235
-23 -39 -50 -87 -61 -106 -11 -19 -27 -43 -36 -52 -17 -20 -3 -25 18 -5 7 6
-3 -8 -23 -33 -95 -116 -303 -272 -458 -345 -55 -25 -101 -35 -69 -15 21 14
13 12 -55 -9 -42 -13 -54 -20 -40 -24 11 -2 -16 -2 -60 0 -100 7 -162 31 -171
68 -11 45 5 136 34 188 101 186 437 418 728 502 97 28 99 29 89 44 -10 17 -47
13 -122 -12 -80 -28 -235 -98 -229 -104 2 -2 23 5 45 17 48 24 91 41 91 36 0
-4 -147 -76 -155 -76 -4 0 -3 5 0 11 11 18 -74 -30 -170 -94 -91 -61 -107 -75
-99 -88 2 -4 -4 -13 -14 -20 -15 -13 -16 -12 -3 4 9 12 10 17 2 17 -7 0 -31
-21 -55 -47 -24 -27 -73 -80 -110 -120 -36 -40 -66 -80 -66 -90 -1 -10 -3 -45
-6 -78 -7 -87 22 -140 95 -177 124 -63 305 -18 529 132 194 130 352 296 432
455 71 141 73 244 7 342 -40 59 -114 99 -212 115 -97 15 -295 3 -440 -26 -66
-13 -121 -23 -122 -22 -1 1 28 25 65 53 106 81 280 244 312 292 63 93 25 160
-88 153 l-23 -1 21 29 c25 36 25 45 -2 64 -36 26 -64 19 -96 -21z m175 -104
c5 -5 8 -21 5 -34 -4 -25 -92 -133 -121 -149 -9 -5 -20 -15 -26 -21 -5 -6 -32
-29 -60 -51 -27 -21 -70 -58 -95 -81 -70 -67 -76 -59 -25 32 90 161 187 301
213 308 33 9 98 7 109 -4z m-299 -91 c-30 -46 -117 -206 -164 -300 -43 -86
-53 -99 -86 -113 -42 -16 -51 -47 -20 -66 17 -11 16 -18 -22 -135 -23 -68 -44
-123 -48 -124 -11 0 -74 128 -87 175 -23 88 41 257 140 368 52 58 109 104 219
174 75 48 88 52 68 21z m28 -47 c-4 -5 -1 -11 4 -13 6 -2 4 -11 -5 -23 -9 -11
-14 -14 -10 -7 3 6 2 12 -3 12 -10 0 -62 -81 -62 -96 0 -3 7 -1 15 6 9 8 15 9
15 2 0 -6 -4 -13 -9 -16 -5 -3 -24 -36 -42 -73 -17 -38 -34 -62 -37 -55 -3 9
-11 2 -23 -17 -10 -17 -23 -31 -28 -31 -8 0 22 60 100 205 35 63 71 115 81
115 5 0 7 -4 4 -9z m174 -65 c0 -2 -17 -16 -37 -31 l-38 -28 29 31 c26 28 46
40 46 28z m137 -247 c-16 -10 -73 -7 -83 4 -4 4 10 6 30 5 20 -1 39 2 42 5 4
4 11 4 17 0 5 -3 3 -9 -6 -14z m88 11 c-28 -12 -65 -12 -65 0 0 6 19 10 43 9
32 0 37 -2 22 -9z m-202 -27 c-7 -2 -21 -2 -30 0 -10 3 -4 5 12 5 17 0 24 -2
18 -5z m-446 -160 c-14 -32 -28 -71 -31 -88 -4 -16 -3 -23 0 -15 14 34 42 97
57 130 30 62 7 -10 -33 -106 -22 -50 -42 -103 -46 -118 -3 -14 -10 -23 -15
-20 -5 3 -9 0 -9 -5 0 -6 -5 -11 -11 -11 -6 0 -8 8 -6 18 19 68 43 141 54 162
7 14 13 33 13 42 0 9 5 20 10 23 6 3 10 15 10 25 0 17 19 32 29 24 2 -2 -8
-30 -22 -61z m378 -162 c-14 -12 -112 -66 -104 -57 11 12 93 64 104 65 6 1 6
-2 0 -8z m335 -345 c0 -2 -26 -25 -57 -51 l-58 -47 55 51 c54 50 60 55 60 47z
m-160 -129 c0 -2 -10 -12 -22 -23 l-23 -19 19 23 c18 21 26 27 26 19z m-95
-73 c-28 -21 -55 -36 -55 -29 0 6 62 45 70 45 3 -1 -4 -8 -15 -16z m-255 -94
c-8 -5 -22 -9 -30 -9 -10 0 -8 3 5 9 27 12 43 12 25 0z m-133 -26 c-3 -3 -12
-4 -19 -1 -8 3 -5 6 6 6 11 1 17 -2 13 -5z"/>
<path d="M6712 3358 c-17 -22 -44 -80 -39 -85 3 -2 17 18 31 46 25 51 28 63 8
39z"/>
<path d="M5517 3713 c-13 -21 -43 -71 -66 -111 -23 -40 -48 -75 -54 -77 -27
-7 -463 -36 -615 -40 -90 -2 -167 -7 -173 -10 -14 -9 -11 -31 6 -45 13 -11
268 9 713 56 l64 7 -60 -119 c-84 -168 -137 -296 -194 -468 -76 -229 -99 -333
-105 -476 -5 -119 -4 -127 18 -159 44 -64 110 -86 124 -41 8 27 -5 52 -24 45
-30 -12 -34 -10 -43 20 -12 42 7 212 38 332 62 241 161 495 290 748 l62 120
44 7 c58 9 428 9 451 -1 14 -5 5 -11 -40 -26 -52 -17 -55 -20 -29 -23 45 -6
113 7 127 24 21 25 -4 62 -47 70 -21 4 -136 4 -256 1 -120 -3 -218 -3 -218 -1
0 2 20 33 45 70 25 36 45 71 45 79 0 16 -47 55 -66 55 -8 0 -24 -17 -37 -37z
m436 -180 c-7 -2 -19 -2 -25 0 -7 3 -2 5 12 5 14 0 19 -2 13 -5z m-615 -230
c-117 -250 -222 -555 -259 -756 -12 -62 -23 -123 -27 -137 -12 -51 -14 16 -2
92 6 40 13 87 15 105 3 17 9 43 15 57 5 14 8 26 6 26 -6 0 36 128 88 269 62
168 195 451 211 451 2 0 -19 -48 -47 -107z m-18 -91 c0 -5 -7 -17 -15 -28 -14
-18 -14 -17 -4 9 12 27 19 34 19 19z m-82 -209 c-30 -81 -67 -186 -81 -233
-14 -47 -33 -107 -41 -135 -11 -35 -14 -39 -10 -15 9 55 73 266 111 365 59
154 68 174 71 170 2 -2 -21 -70 -50 -152z m-141 -455 c-3 -7 -5 -2 -5 12 0 14
2 19 5 13 2 -7 2 -19 0 -25z"/>
<path d="M8767 3662 c-53 -72 -121 -182 -141 -229 -11 -24 -23 -43 -28 -43 -7
0 -79 -94 -198 -258 -24 -34 -47 -62 -51 -62 -3 0 -16 12 -30 26 -68 74 -130
63 -202 -38 -60 -83 -157 -283 -164 -337 -5 -36 -2 -46 22 -71 37 -39 67 -44
119 -21 49 21 44 15 167 205 91 141 228 336 235 336 2 0 -13 -37 -32 -82 -102
-237 -192 -495 -201 -579 -8 -83 34 -149 96 -149 l24 0 -21 23 c-12 13 -22 36
-22 53 0 119 151 527 316 859 52 104 99 194 103 200 5 5 20 30 33 55 14 25 34
59 43 76 20 34 16 57 -14 73 -17 9 -24 5 -54 -37z m-97 -232 c-6 -11 -13 -20
-16 -20 -2 0 0 9 6 20 6 11 13 20 16 20 2 0 0 -9 -6 -20z m-31 -133 c-69 -137
-66 -133 -76 -122 -5 4 -2 10 5 12 6 3 10 9 6 14 -3 5 0 9 7 9 7 0 10 3 6 6
-3 4 0 13 8 20 8 8 11 22 8 31 -4 10 -2 14 4 10 10 -6 80 129 75 145 -1 5 2 7
8 3 6 -3 -15 -56 -51 -128z m-54 56 c-49 -76 -220 -312 -223 -308 -4 4 229
335 236 335 2 0 -4 -12 -13 -27z m-65 -319 c-72 -170 -69 -165 -65 -126 2 18
8 39 13 45 5 7 19 41 32 77 23 65 59 134 66 127 2 -2 -19 -57 -46 -123z m-230
-16 c3 -37 2 -64 -2 -62 -9 6 -26 -28 -21 -43 4 -11 -14 -28 -31 -28 -5 0 -11
-6 -14 -14 -3 -9 0 -11 9 -6 8 4 -2 -8 -21 -27 -19 -19 -63 -67 -98 -106 -58
-66 -92 -89 -92 -61 0 25 65 169 110 244 56 92 127 178 144 172 6 -2 13 -33
16 -69z m171 -31 c-10 -9 -11 -8 -5 6 3 10 9 15 12 12 3 -3 0 -11 -7 -18z
m-30 -80 c-13 -13 -15 1 -4 30 7 17 8 17 11 -1 2 -10 -1 -23 -7 -29z m-31
-182 c-27 -77 -53 -156 -58 -175 -10 -35 -10 -35 -10 -5 1 33 23 121 43 169 7
17 14 36 15 41 0 6 7 19 15 31 7 11 15 29 17 40 3 17 20 45 25 40 1 -1 -20
-64 -47 -141z m-43 -22 c-28 -84 -52 -151 -54 -150 -1 2 4 28 13 58 9 29 18
65 21 78 2 13 11 40 19 60 29 71 48 111 50 108 1 -1 -21 -71 -49 -154z"/>
<path d="M3987 3410 c-20 -21 -48 -57 -63 -79 -22 -34 -24 -43 -14 -56 24 -29
51 -12 96 60 66 108 54 156 -19 75z"/>
<path d="M8788 3317 c-60 -50 -209 -405 -223 -534 -9 -73 10 -125 54 -147 33
-18 51 -14 98 22 98 73 313 413 313 495 0 28 6 32 27 19 30 -19 44 -221 22
-321 -10 -48 -14 -53 -108 -121 -143 -102 -325 -293 -379 -397 -49 -95 -56
-164 -22 -221 47 -77 113 -62 226 52 134 134 276 376 329 559 16 55 21 61 78
98 34 21 91 51 127 66 80 33 75 29 60 48 -16 19 -83 20 -118 1 -15 -7 -48 -23
-73 -34 l-46 -20 -6 101 c-6 119 -27 195 -65 238 -27 30 -28 31 -49 12 -12
-10 -39 -52 -61 -93 -74 -143 -177 -284 -282 -385 l-53 -50 7 49 c10 79 73
251 142 387 35 70 64 136 64 146 0 26 -42 46 -62 30z m225 -142 c-3 -9 -8 -14
-10 -11 -3 3 -2 9 2 15 9 16 15 13 8 -4z m-334 -153 c-6 -18 -15 -32 -21 -32
-5 0 -8 3 -6 8 33 67 47 80 27 24z m267 -19 c-9 -16 -25 -39 -37 -53 l-21 -25
16 28 c28 47 48 77 52 77 3 0 -2 -12 -10 -27z m-311 -118 c-13 -39 -28 -91
-31 -118 -9 -67 -29 -75 -21 -9 8 69 45 192 58 192 6 0 7 6 3 13 -5 8 -4 9 4
2 9 -8 5 -29 -13 -80z m415 -119 c0 -2 -8 -10 -17 -17 -16 -13 -17 -12 -4 4
13 16 21 21 21 13z m-43 -39 c0 -8 -6 -14 -14 -14 -9 0 -10 4 -2 14 6 7 12 13
14 13 1 0 2 -6 2 -13z m13 -62 c-5 -14 -18 -42 -29 -63 -10 -20 -32 -66 -49
-102 -69 -149 -301 -395 -337 -358 -3 3 2 27 10 54 18 61 89 177 163 268 52
64 227 226 244 226 4 0 3 -11 -2 -25z m-92 -7 c-3 -7 -10 -13 -17 -13 -7 0
-18 -7 -24 -15 -7 -8 -24 -24 -37 -35 -14 -11 -5 2 20 28 43 46 66 60 58 35z
m81 -113 c-55 -125 -179 -307 -262 -385 -39 -37 -104 -70 -123 -63 -9 3 -1 12
25 25 45 22 228 211 223 230 -1 4 7 9 17 13 10 3 21 18 24 33 6 27 107 205
114 198 2 -1 -6 -25 -18 -51z"/>
<path d="M4228 3237 c-14 -23 -37 -65 -51 -93 -14 -27 -34 -54 -45 -60 -11 -5
-47 -46 -80 -90 -78 -106 -181 -215 -240 -254 l-47 -31 -6 23 c-8 36 25 132
93 266 67 132 69 154 16 160 -22 3 -30 -6 -65 -75 -22 -43 -48 -99 -58 -124
-13 -37 -31 -57 -83 -97 -71 -53 -141 -92 -167 -92 -25 0 -18 39 30 174 25 70
45 134 45 142 0 9 -19 38 -42 65 -57 68 -90 68 -156 2 -47 -47 -202 -262 -202
-280 0 -5 -7 -18 -16 -29 -8 -10 -12 -13 -8 -5 4 9 3 12 -4 7 -35 -21 -13
-126 27 -126 21 0 94 75 171 178 30 40 83 95 118 123 l63 51 -22 -43 c-36 -71
-69 -168 -69 -202 0 -47 48 -97 92 -97 41 0 102 28 146 65 l34 28 -7 -45 c-6
-42 -5 -47 25 -71 74 -63 158 -18 293 153 28 36 54 69 59 74 4 6 -5 -28 -22
-75 -16 -46 -30 -95 -30 -107 0 -25 35 -82 51 -82 5 0 22 26 38 58 16 32 56
94 89 137 63 85 189 225 202 225 4 0 11 -30 14 -67 10 -102 35 -171 76 -215
20 -21 45 -38 54 -38 45 0 186 179 186 236 0 19 -15 7 -88 -67 -74 -74 -94
-89 -120 -89 -28 0 -32 4 -41 38 -5 20 -12 71 -16 112 -11 115 -41 162 -94
145 -19 -6 -117 -105 -183 -185 l-38 -45 16 40 c9 22 41 89 71 148 51 100 54
110 43 138 -7 16 -16 31 -19 34 -4 2 -19 -15 -33 -38z m-765 -104 c-12 -33
-17 -40 -212 -253 l-32 -35 14 30 c24 49 107 156 168 218 61 60 72 68 62 40z
m643 -113 c-36 -54 -42 -51 -8 4 15 24 29 42 31 40 2 -2 -8 -22 -23 -44z"/>
<path d="M2878 3178 c-37 -68 -118 -255 -149 -345 -23 -69 -24 -97 -3 -118 16
-15 19 -15 40 7 12 13 49 73 80 133 78 149 115 205 161 245 l38 34 6 -46 c21
-141 128 -185 185 -76 21 40 10 47 -24 15 -15 -14 -39 -30 -54 -36 -32 -12
-42 -1 -53 64 -18 97 -64 130 -116 84 -13 -11 -17 -17 -9 -13 8 4 -6 -15 -30
-44 -25 -29 -49 -52 -53 -52 -5 0 -6 -4 -3 -8 6 -10 -31 -59 -38 -51 -7 6 25
88 73 188 32 67 32 81 1 81 -12 0 -29 -21 -52 -62z m-88 -273 c-16 -39 -30
-65 -30 -60 0 15 55 146 58 137 1 -4 -11 -39 -28 -77z"/>
<path d="M5525 3170 c4 -6 -13 -32 -38 -59 -91 -97 -124 -219 -83 -300 26 -49
56 -58 121 -37 61 19 126 82 146 143 11 35 8 112 -6 146 -6 15 1 17 81 17 48
0 116 5 151 11 57 10 64 14 61 33 -3 23 12 23 -199 10 -112 -6 -117 -6 -131
15 -11 16 -30 24 -63 27 -33 4 -45 2 -40 -6z m106 -102 c28 -44 -6 -143 -69
-200 -40 -36 -106 -63 -125 -51 -16 9 1 94 30 152 15 29 44 73 65 96 37 42 40
43 65 30 14 -8 30 -20 34 -27z"/>
<path d="M7694 3171 c3 -5 -14 -31 -38 -57 -92 -98 -124 -205 -88 -287 27 -60
55 -74 116 -57 61 17 110 60 142 126 22 44 26 64 21 102 -3 26 -8 54 -12 63
-5 14 10 17 117 22 129 5 178 17 178 41 0 22 -34 28 -97 17 -31 -6 -93 -11
-137 -11 -68 0 -83 3 -103 21 -23 22 -111 40 -99 20z m74 -77 c65 -32 52 -137
-27 -215 -44 -45 -112 -76 -134 -62 -15 9 -1 97 24 145 19 39 95 148 103 148
2 0 17 -7 34 -16z"/>
<path d="M2068 2304 c-38 -20 -36 -28 2 -9 17 9 30 18 30 20 0 7 -1 6 -32 -11z"/>
<path d="M6894 2294 c-18 -14 -18 -15 4 -4 12 6 22 13 22 15 0 8 -5 6 -26 -11z"/>
<path d="M1980 2260 c-8 -5 -10 -10 -5 -10 6 0 17 5 25 10 8 5 11 10 5 10 -5
0 -17 -5 -25 -10z"/>
<path d="M6820 2260 c-8 -5 -10 -10 -5 -10 6 0 17 5 25 10 8 5 11 10 5 10 -5
0 -17 -5 -25 -10z"/>
<path d="M1848 2213 c7 -3 16 -2 19 1 4 3 -2 6 -13 5 -11 0 -14 -3 -6 -6z"/>
<path d="M3790 1651 c0 -101 2 -121 15 -121 12 0 15 13 15 55 0 38 4 55 13 55
7 0 25 -25 40 -55 15 -30 33 -55 41 -55 12 0 10 10 -8 51 l-24 50 24 24 c49
49 18 105 -64 113 l-52 5 0 -122z m98 77 c20 -20 14 -48 -14 -58 -46 -18 -54
-13 -54 30 0 37 2 40 28 40 15 0 33 -5 40 -12z"/>
<path d="M4090 1650 l0 -120 75 0 c60 0 75 3 75 15 0 12 -13 15 -60 15 l-60 0
0 40 0 40 50 0 c28 0 50 5 50 10 0 6 -22 10 -50 10 l-50 0 0 40 0 40 60 0 c47
0 60 3 60 15 0 12 -15 15 -75 15 l-75 0 0 -120z"/>
<path d="M4449 1678 c22 -51 46 -108 54 -126 l14 -33 48 113 c26 62 50 119 52
126 3 6 -1 12 -9 12 -8 0 -30 -38 -52 -90 -21 -50 -40 -90 -41 -88 -2 2 -19
41 -38 88 -20 48 -42 86 -51 88 -12 3 -6 -19 23 -90z"/>
<path d="M4839 1753 c-104 -64 -60 -223 61 -223 67 0 120 53 120 120 0 91
-105 150 -181 103z m126 -38 c17 -17 25 -35 25 -60 0 -49 -15 -74 -56 -91 -29
-12 -39 -12 -68 0 -40 17 -56 42 -56 89 0 78 100 118 155 62z"/>
<path d="M5190 1650 l0 -120 75 0 c60 0 75 3 75 15 0 12 -14 15 -65 15 l-65 0
0 105 c0 63 -4 105 -10 105 -6 0 -10 -47 -10 -120z"/>
<path d="M5510 1673 c0 -91 2 -101 23 -121 33 -31 90 -30 122 3 23 22 25 32
25 120 0 77 -3 95 -15 95 -11 0 -15 -20 -17 -97 -3 -96 -3 -98 -31 -111 -24
-12 -31 -11 -52 2 -22 15 -24 23 -27 108 -2 62 -7 93 -15 96 -10 3 -13 -21
-13 -95z"/>
<path d="M5830 1755 c0 -11 11 -15 39 -15 l39 0 -1 -102 c0 -69 4 -103 11
-106 9 -3 12 26 12 102 l0 106 40 0 c29 0 40 4 40 15 0 12 -17 15 -90 15 -73
0 -90 -3 -90 -15z"/>
<path d="M6170 1650 c0 -73 4 -120 10 -120 6 0 10 47 10 120 0 73 -4 120 -10
120 -6 0 -10 -47 -10 -120z"/>
<path d="M6428 1755 c-62 -35 -78 -132 -30 -185 78 -88 227 -17 208 98 -12 78
-110 125 -178 87z m126 -46 c29 -35 33 -67 11 -108 -32 -63 -125 -56 -158 11
-16 33 -16 40 -3 71 17 42 39 56 88 57 28 0 42 -7 62 -31z"/>
<path d="M6780 1651 c0 -101 2 -121 15 -121 12 0 15 16 15 85 0 47 3 85 6 85
4 0 44 -39 90 -87 l83 -88 1 123 c0 102 -2 122 -15 122 -12 0 -15 -17 -15 -90
l0 -90 -81 88 c-45 48 -85 89 -90 90 -5 2 -9 -50 -9 -117z"/>
</g>
</svg>
